
Genre: Horror | Thriller
Language:English
IMDb:http://www.imdb.com/title/tt1687901/
Source:720p CAM XviD-26K Thanks!

Format : AVI
Format/Info : Audio Video Interleave
File size : 844 MiB
Duration : 1h 42mn
Overall bit rate : 1 155 Kbps

Video
ID : 0
Format : MPEG-4 Visual
Format profile : Advanced Simple@L5
Format settings, BVOP : Yes
Format settings, QPel : No
Format settings, GMC : No warppoints
Format settings, Matrix : Default (H.263)
Muxing mode : Packed bitstream
Codec ID : XVID
Codec ID/Hint : XviD
Duration : 1h 42mn
Bit rate : 1 017 Kbps
Width : 640 pixels
Height : 272 pixels
Display aspect ratio : 2.35:1
Frame rate : 25.000 fps
Color space : YUV
Chroma subsampling : 4:2:0
Bit depth : 8 bits
Scan type : Progressive
Bits/(Pixel*Frame) : 0.234
Stream size : 744 MiB (88%)
Writing library : XviD 1.2.1 (UTC 2008-12-04)

Audio
ID : 1
Format : MPEG Audio
Format version : Version 1
Format profile : Layer 3
Mode : Joint stereo
Mode extension : MS Stereo
Codec ID : 55
Codec ID/Hint : MP3
Duration : 1h 42mn
Bit rate mode : Constant
Bit rate : 128 Kbps
Channel(s) : 2 channels
Sampling rate : 48.0 KHz
Stream size : 93.6 MiB (11%)
Alignment : Split accross interleaves
Interleave, duration : 40 ms (1.00 video frame)
Interleave, preload duration : 500 ms


Plot:
1921 England is overwhelmed by the loss and grief of World War I. Hoax exposer Florence Cathcart visits a boarding school to explain sightings of a child ghost. Everything she knew in unravels as the 'missing' begin to show themselves
 
http://img810.imageshack.us/img810/4699/vlcsnap2012010721h04m55.png 
http://img441.imageshack.us/img441/9558/vlcsnap2012010721h05m20.png 
http://img267.imageshack.us/img267/7964/vlcsnap2012010721h05m44.png 
http://img441.imageshack.us/img441/9505/vlcsnap2012010721h06m01.png 
http://img37.imageshack.us/img37/2105/vlcsnap2012010721h05m12.png